<svg version="1.1" xmlns="http://www.w3.org/2000/svg" viewBox="0 0 69 37">
    <g fill="#000000">
        <path d="M0,20.052C0,14.05,4.911,9.237,10.815,9.237c2.699,0,5.195,1.01,7.121,2.675l3.135-3.795l2.752,2.753  c-3.337,3.026-5.121,7.363-5.121,11.617c0,2.958,0.833,5.628,2.104,7.85c-1.695,3.964-5.612,6.52-9.996,6.52  c-0.192,0-0.831-0.038-0.831-0.038v-5.981C4.81,30.385,0,26.238,0,20.052z M10.815,25.177c2.873,0,5.125-2.35,5.125-5.125  c0-2.765-2.252-5.125-5.125-5.125c-2.665,0-5.125,2.128-5.125,5.125C5.69,22.828,7.99,25.177,10.815,25.177z"/>
        <path d="M50.923,11.823c1.829-1.713,4.469-2.682,7.166-2.682C64.08,9.141,69,14.052,69,20.052c0,6.197-5.049,10.912-10.912,10.912  c-2.025,0-3.794-0.631-4.983-1.202v7.096h-5.559v-5.702c1.616-2.45,2.608-5.157,2.608-8.677c0-4.79-1.997-8.68-5.082-11.566  l2.717-2.796L50.923,11.823z M58.088,14.928c-2.696,0-5.125,2.234-5.125,5.125c0,2.776,2.265,5.125,5.125,5.125  c2.852,0,5.125-2.349,5.125-5.125C63.213,17.248,60.939,14.928,58.088,14.928z"/>
        <path d="M31.644,15.215V29.76c0.77,0.31,1.832,0.518,2.8,0.518c0.978,0,1.881-0.177,2.765-0.505V15.202  c-0.959-0.352-1.791-0.504-2.765-0.504C33.476,14.697,32.545,14.871,31.644,15.215z"/>
        <circle cx="34.444" cy="3.33" r="3.33"/>
    </g>
    <path fill="#FABB00" d="M34.444,8.117c-7.937,0-14.371,6.434-14.371,14.371c0,7.936,6.434,14.37,14.371,14.37  c7.936,0,14.37-6.434,14.37-14.37C48.814,14.551,42.38,8.117,34.444,8.117z M34.444,31.607c-5.037,0-9.12-4.083-9.12-9.119  c0-5.037,4.083-9.12,9.12-9.12c5.036,0,9.119,4.083,9.119,9.12C43.563,27.524,39.48,31.607,34.444,31.607z"/>
</svg>