<svg version="1.1" xmlns="http://www.w3.org/2000/svg" style="display: none;">
    <symbol id="icon-company-logo" viewBox="0 0 69 37">
        <g fill="#000000">
            <path d="M0,20.052C0,14.05,4.911,9.237,10.815,9.237c2.699,0,5.195,1.01,7.121,2.675l3.135-3.795l2.752,2.753  c-3.337,3.026-5.121,7.363-5.121,11.617c0,2.958,0.833,5.628,2.104,7.85c-1.695,3.964-5.612,6.52-9.996,6.52  c-0.192,0-0.831-0.038-0.831-0.038v-5.981C4.81,30.385,0,26.238,0,20.052z M10.815,25.177c2.873,0,5.125-2.35,5.125-5.125  c0-2.765-2.252-5.125-5.125-5.125c-2.665,0-5.125,2.128-5.125,5.125C5.69,22.828,7.99,25.177,10.815,25.177z"/>
            <path d="M50.923,11.823c1.829-1.713,4.469-2.682,7.166-2.682C64.08,9.141,69,14.052,69,20.052c0,6.197-5.049,10.912-10.912,10.912  c-2.025,0-3.794-0.631-4.983-1.202v7.096h-5.559v-5.702c1.616-2.45,2.608-5.157,2.608-8.677c0-4.79-1.997-8.68-5.082-11.566  l2.717-2.796L50.923,11.823z M58.088,14.928c-2.696,0-5.125,2.234-5.125,5.125c0,2.776,2.265,5.125,5.125,5.125  c2.852,0,5.125-2.349,5.125-5.125C63.213,17.248,60.939,14.928,58.088,14.928z"/>
            <path d="M31.644,15.215V29.76c0.77,0.31,1.832,0.518,2.8,0.518c0.978,0,1.881-0.177,2.765-0.505V15.202  c-0.959-0.352-1.791-0.504-2.765-0.504C33.476,14.697,32.545,14.871,31.644,15.215z"/>
            <circle cx="34.444" cy="3.33" r="3.33"/>
        </g>
        <path fill="#FABB00" d="M34.444,8.117c-7.937,0-14.371,6.434-14.371,14.371c0,7.936,6.434,14.37,14.371,14.37  c7.936,0,14.37-6.434,14.37-14.37C48.814,14.551,42.38,8.117,34.444,8.117z M34.444,31.607c-5.037,0-9.12-4.083-9.12-9.119  c0-5.037,4.083-9.12,9.12-9.12c5.036,0,9.119,4.083,9.119,9.12C43.563,27.524,39.48,31.607,34.444,31.607z"/>
    </symbol>

    <!-- XDS-->
    <symbol id="icon-fullscreen" viewBox="0 0 16 16">
        <path d="M16,1.6C16,0.7,15.3,0,14.4,0c0,0,0,0,0,0H1.6C0.7,0,0,0.7,0,1.6v12.8C0,15.3,0.7,16,1.6,16 c0,0,0,0,0,0h12.8c0.9,0,1.6-0.7,1.6-1.6c0,0,0,0,0,0V1.6z M1.6,2.4c0-0.4,0.3-0.8,0.7-0.8c0,0,0.1,0,0.1,0h11.2 c0.4,0,0.8,0.3,0.8,0.7c0,0,0,0.1,0,0.1v11.2c0,0.4-0.3,0.8-0.7,0.8c0,0-0.1,0-0.1,0H7.2c-0.4,0-0.8-0.3-0.8-0.7c0,0,0-0.1,0-0.1 v-2.4c0-0.9-0.7-1.6-1.6-1.6H2.4C2,9.6,1.6,9.3,1.6,8.9c0,0,0-0.1,0-0.1L1.6,2.4z M6.4,4c0-0.4,0.3-0.8,0.7-0.8c0,0,0.1,0,0.1,0h4 c0.9,0,1.6,0.7,1.6,1.6l0,0v4c0,0.4-0.4,0.8-0.8,0.8s-0.8-0.4-0.8-0.8V6.9c0-0.2-0.2-0.4-0.5-0.4c-0.1,0-0.2,0-0.3,0.1L8.1,9 C7.8,9.3,7.3,9.3,7,8.9C6.7,8.6,6.7,8.1,7,7.8l2.4-2.4c0.1-0.1,0.2-0.4,0-0.5C9.3,4.8,9.2,4.8,9.1,4.8H7.2C6.8,4.8,6.4,4.5,6.4,4 C6.4,4.1,6.4,4,6.4,4z"/>
    </symbol>

    <symbol id="icon-copy" viewBox="0 0 16 16">
        <path d="M14.9,4H12V1.4C12,0.7,11.5,0,10.9,0H1.3C0.5,0.1,0,0.7,0,1.4V11c0,0.6,0.6,1,1.3,1H4v3 c0,0.6,0.6,1,1.3,1h9.6c0.6,0,1.1-0.3,1.1-1V5.4C16,4.7,15.5,4,14.9,4z M2.5,10.4c-0.5,0-0.9-0.2-0.9-0.6V2.6c0-0.5,0.4-1,0.9-1h7.2 c0.4,0,0.7,0.6,0.7,1v7.2c0,0.5-0.3,0.6-0.7,0.6L2.5,10.4z M14.4,13.8c0,0.5-0.3,0.6-0.7,0.6H6.5c-0.5,0-0.9-0.2-0.9-0.6V12h5.3 c0.6,0,1.1-0.3,1.1-1V5.6h1.7c0.4,0,0.7,0.6,0.7,1L14.4,13.8z"/>
    </symbol>

    <symbol id="icon-subnavexpand" viewBox="0 0 12 12">
        <path d="M12,3H0l6,6L12,3z"/>
    </symbol>

    <!-- XDS COMPONTENTS-->
    <symbol id="icon-loadingspinner" viewBox="0 0 32 32">
        <path d="M0,16C0,7.2,7.2,0,16,0c8.8,0,16,7.2,16,16c0,8.8-7.2,16-16,16C7.2,32,0,24.8,0,16z M1.6,16 c0,7.9,6.5,14.4,14.4,14.4c7.9,0,14.4-6.5,14.4-14.4c0-2.2-0.5-4.3-1.4-6.3c-0.8,0.4-2.1,1-2.9,1.3c0.8,1.5,1.1,3.2,1.1,4.9 c0,6.2-5,11.2-11.2,11.2c-6.2,0-11.2-5-11.2-11.2c0-6.2,5-11.2,11.2-11.2c0-0.9,0-2.3,0-3.2C8,1.6,1.6,8.1,1.6,16z M6.4,16 c0,5.3,4.3,9.6,9.6,9.6c5.3,0,9.6-4.3,9.6-9.6c0-5.3-4.3-9.6-9.6-9.6C10.7,6.4,6.4,10.7,6.4,16z"/>
    </symbol>

    <symbol id="icon-check" viewBox="0 0 32 32">
        <path d="M4.3,11C1.9,11,0,13,0,15.5s1.9,4.6,4.3,4.6s4.3-2.1,4.3-4.6S6.7,11,4.3,11z M4.3,18.3 c-1.4,0-2.6-1.2-2.6-2.7s1.2-2.7,2.6-2.7s2.6,1.2,2.6,2.7S5.8,18.3,4.3,18.3z M27.7,9.1c2.4,0,4.3-2.1,4.3-4.6S30.1,0,27.7,0 s-4.3,2.1-4.3,4.6S25.3,9.1,27.7,9.1z M27.7,1.8c1.4,0,2.6,1.2,2.6,2.7s-1.2,2.7-2.6,2.7c-1.4,0-2.6-1.2-2.6-2.7S26.2,1.8,27.7,1.8z M13,22.9c-2.4,0-4.3,2.1-4.3,4.6S10.6,32,13,32s4.3-2.1,4.3-4.6S15.4,22.9,13,22.9z M13,30.2c-1.4,0-2.6-1.2-2.6-2.7 c0-1.5,1.2-2.7,2.6-2.7s2.6,1.2,2.6,2.7C15.6,28.9,14.4,30.2,13,30.2z M23.7,8.8l1.5,0.9l-8.3,13.4l-1.5-0.9L23.7,8.8z M8.7,19.2 l1.4,2.5l-1.4,1.1l-1.4-2.5L8.7,19.2z"/>
    </symbol>

    <symbol id="icon-print" viewBox="0 0 16 16">
        <path d="M14.4,4.8V1.6c0-0.9-0.7-1.6-1.6-1.6H3.2C2.3,0,1.6,0.7,1.6,1.6v3.2C0.7,4.8,0,5.5,0,6.4v6.4 c0,0.9,0.7,1.6,1.6,1.6c0,0,0,0,0,0h0.8C2.4,15.3,3.1,16,4,16h8c0.9,0,1.6-0.7,1.6-1.6c0,0,0,0,0,0h0.8c0.9,0,1.6-0.7,1.6-1.6V6.4 C16,5.5,15.3,4.8,14.4,4.8L14.4,4.8z M3.2,2.4c0-0.4,0.3-0.8,0.7-0.8c0,0,0.1,0,0.1,0h8c0.4,0,0.8,0.3,0.8,0.7c0,0,0,0.1,0,0.1v2.4 H3.2V2.4z M12,13.6c0,0.4-0.3,0.8-0.7,0.8c0,0-0.1,0-0.1,0H4.8c-0.4,0-0.8-0.3-0.8-0.7c0,0,0-0.1,0-0.1v-2.4h8V13.6z M14.4,12.4 c0,0.2-0.1,0.4-0.4,0.4c0,0,0,0,0,0h-0.4V9.6H2.4v3.2H2c-0.2,0-0.4-0.1-0.4-0.4c0,0,0,0,0,0V7.2c0-0.4,0.3-0.8,0.7-0.8 c0,0,0.1,0,0.1,0h11.2c0.4,0,0.8,0.3,0.8,0.7c0,0,0,0.1,0,0.1L14.4,12.4z M4.2,7.8c0,0.4-0.3,0.8-0.7,0.8c0,0-0.1,0-0.1,0 c-0.4,0-0.8-0.3-0.8-0.7c0,0,0-0.1,0-0.1c0-0.4,0.3-0.8,0.7-0.8c0,0,0.1,0,0.1,0C3.8,7.1,4.1,7.4,4.2,7.8z M7.4,7.8 c0,0.4-0.3,0.8-0.7,0.8c0,0-0.1,0-0.1,0c-0.4,0-0.8-0.3-0.8-0.7c0,0,0-0.1,0-0.1c0-0.4,0.3-0.8,0.7-0.8c0,0,0.1,0,0.1,0 C7,7.1,7.3,7.4,7.4,7.8z"/>
    </symbol>

    <symbol id="icon-reload" viewBox="0 0 16 16">
        <path d="M12.5,9.7c-0.4,2.9-3.1,4.9-6.1,4.5c-2.2-0.3-4-2-4.5-4.2C1.2,7.3,2.8,4.5,5.6,3.7c0.5-0.1,1-0.2,1.5-0.2v1.8 l4.5-2.7L7.1,0v1.8C3.2,1.8,0,5,0,8.9C0,12.8,3.2,16,7.1,16c3.5,0,6.5-2.6,7-6.1c0.1-0.5-0.3-0.9-0.7-1c0,0-0.1,0-0.1,0l0,0 C12.8,8.9,12.5,9.3,12.5,9.7C12.5,9.7,12.5,9.7,12.5,9.7z"/>
    </symbol>

    <symbol id="icon-edit" viewBox="0 0 16 16">
        <path d="M16,3.7L12.3,0L3.9,7.8v4.3h4.3L16,3.7z M12.4,2.1l1.4,1.4l-1.1,1.2l-1.4-1.4L12.4,2.1z M5.5,10.5V8.4L10,4.2 L11.5,6l-4,4.5L5.5,10.5z M15.7,14.4V16H0v-1.6L15.7,14.4z"/>
    </symbol>

    <symbol id="icon-menu" viewBox="0 0 16 16">
        <path d="M10,2c0,1.1-0.9,2-2,2S6,3.1,6,2s0.9-2,2-2C9.1,0,10,0.9,10,2z M10,8c0,1.1-0.9,2-2,2S6,9.1,6,8s0.9-2,2-2 C9.1,6,10,6.9,10,8z M10,14c0,1.1-0.9,2-2,2s-2-0.9-2-2s0.9-2,2-2C9.1,12,10,12.9,10,14z"/>
    </symbol>

    <symbol id="icon-checked" viewBox="0 0 16 16">
        <path d="M1.6,7.5L5.1,11l9.4-9.2L16,3.3L5.1,14.3l0,0L0,9.1L1.6,7.5z"/>
    </symbol>

    <symbol id="icon-calendar" viewBox="0 0 16 16">
    <path d="M0.1,14.2c0,0.9,0.7,1.7,1.7,1.8h12.7c0.9-0.1,1.6-0.8,1.5-1.7c0,0,0,0,0,0V3.8c-0.1-1.7-0.3-2.2-3.3-2.2V0 h-1.6v1.6H4.8V0H3.2v1.6H1.6C0.7,1.6,0,2.3,0,3.2L0.1,14.2z M14.3,13.6c0,0.4-0.4,0.8-0.8,0.8H2.4c-0.4,0-0.8-0.3-0.8-0.7 c0,0,0-0.1,0-0.1V8h12.7L14.3,13.6z M14.3,6.4H1.6V4c0-0.4,0.4-0.8,0.8-0.8h0.8v1.6h1.6V3.2h6.4v1.6h1.6V3.2h0.8 c0.4,0,0.8,0.3,0.8,0.7c0,0,0,0.1,0,0.1L14.3,6.4z"/>
    </symbol>

    <symbol id="icon-time" viewBox="0 0 16 16">
        <path d="M12.8,8.8c0,0.4-0.3,0.8-0.7,0.8c0,0-0.1,0-0.1,0H8.8C7.9,9.6,7.2,8.9,7.2,8c0,0,0,0,0,0V4 c0-0.4,0.3-0.8,0.7-0.8c0,0,0.1,0,0.1,0c0.4,0,0.8,0.3,0.8,0.7c0,0,0,0.1,0,0.1v3.2C8.8,7.6,9.2,8,9.6,8H12 C12.4,8,12.8,8.3,12.8,8.8C12.8,8.7,12.8,8.8,12.8,8.8z M16,8c0,4.4-3.6,8-8,8s-8-3.6-8-8s3.6-8,8-8C12.4,0,16,3.6,16,8z M14.4,8 c0-3.5-2.9-6.4-6.4-6.4S1.6,4.5,1.6,8s2.9,6.4,6.4,6.4c0,0,0,0,0,0C11.5,14.4,14.4,11.5,14.4,8z"/>
    </symbol>

    <symbol id="icon-arrowleft" viewBox="0 0 16 16">
        <path d="M12,0.2L12,0.2c-0.3-0.3-0.8-0.3-1.1,0c0,0,0,0,0,0L4.2,6.9C3.6,7.5,3.6,8.4,4.2,9.1c0,0,0,0,0.1,0.1l6.6,6.6 c0.3,0.3,0.8,0.3,1.1,0c0,0,0,0,0,0l0,0c0.3-0.3,0.3-0.8,0-1.1c0,0,0,0,0,0L5.9,8.6c-0.3-0.3-0.3-0.8,0-1.1c0,0,0,0,0,0L12,1.4 C12.3,1.1,12.3,0.6,12,0.2C12,0.3,12,0.2,12,0.2z"/>
    </symbol>

    <symbol id="icon-arrowright" viewBox="0 0 16 16">
        <path d="M4,15.8L4,15.8c0.3,0.3,0.8,0.3,1.1,0c0,0,0,0,0,0l6.6-6.6c0.6-0.6,0.6-1.6,0.1-2.2c0,0,0,0-0.1-0.1L5.1,0.2 C4.8-0.1,4.3-0.1,4,0.2c0,0,0,0,0,0l0,0C3.7,0.5,3.7,1,4,1.3c0,0,0,0,0,0l6.1,6.1c0.3,0.3,0.3,0.8,0,1.1c0,0,0,0,0,0L4,14.6 C3.7,14.9,3.7,15.4,4,15.8C4,15.7,4,15.8,4,15.8z"/>
    </symbol>

    <symbol id="icon-arrowup" viewBox="0 0 16 16">
        <path d="M15.8,12L15.8,12c0.3-0.3,0.3-0.8,0-1.1c0,0,0,0,0,0L9.1,4.2C8.5,3.6,7.6,3.6,6.9,4.2c0,0,0,0-0.1,0.1l-6.6,6.6 c-0.3,0.3-0.3,0.8,0,1.1c0,0,0,0,0,0l0,0c0.3,0.3,0.8,0.3,1.1,0c0,0,0,0,0,0l6.1-6.1c0.3-0.3,0.8-0.3,1.1,0c0,0,0,0,0,0l6.1,6.1 C14.9,12.3,15.4,12.3,15.8,12C15.7,12,15.8,12,15.8,12z"/>
    </symbol>

    <symbol id="icon-arrowdown" viewBox="0 0 16 16">
        <path d="M0.2,4L0.2,4c-0.3,0.3-0.3,0.8,0,1.1c0,0,0,0,0,0l6.6,6.6c0.6,0.6,1.6,0.6,2.2,0.1c0,0,0,0,0.1-0.1l6.6-6.6 c0.3-0.3,0.3-0.8,0-1.1c0,0,0,0,0,0l0,0c-0.3-0.3-0.8-0.3-1.1,0c0,0,0,0,0,0l-6.1,6.1c-0.3,0.3-0.8,0.3-1.1,0c0,0,0,0,0,0L1.4,4 C1.1,3.7,0.6,3.7,0.2,4C0.3,4,0.2,4,0.2,4z"/>
    </symbol>

    <symbol id="icon-user" viewBox="0 0 16 16">
        <path d="M11,8.5c1.3-1.1,2-2.8,1.8-4.5c-0.3-2.1-2-3.7-4.2-4C6-0.3,3.6,1.4,3.3,4c0,0.3-0.1,0.5,0,0.8 c0,1.5,0.7,2.8,1.8,3.8c-2.8,1-4.7,3.6-5,6.6C0,15.5,0.3,15.9,0.7,16c0,0,0.1,0,0.1,0c0.4,0,0.7-0.3,0.8-0.7c0.3-3.6,3-5.7,6.4-5.7 c3.3-0.2,6.2,2.4,6.4,5.7c0,0.4,0.4,0.7,0.8,0.7c0.4,0,0.8-0.3,0.8-0.7c0,0,0-0.1,0-0.1C15.7,12.1,13.8,9.6,11,8.5z M8,8 C6.2,8,4.8,6.6,4.8,4.8C4.8,3,6.2,1.6,8,1.6c1.8,0,3.2,1.4,3.2,3.2c0,0,0,0,0,0C11.2,6.5,9.8,8,8,8L8,8z"/>
    </symbol>

    <symbol id="icon-settings" viewBox="0 0 16 16">
        <path d="M15.2,7.2h-1.4c-0.2,0-0.5,0-0.5-0.2c0-0.8-0.2-1.6-0.7-2.2c-0.2-0.2-0.1-0.2,0.1-0.4l1-0.9 c0.3-0.3,0.3-0.8,0-1.1c-0.3-0.3-0.8-0.3-1.1,0l-1,1c-0.1,0.1-0.3,0.2-0.5,0.1C10.5,3,9.9,2.7,9.2,2.6C9,2.5,8.9,2.4,8.9,2.2V0.8 C8.9,0.4,8.6,0,8.2,0c0,0-0.1,0-0.1,0C7.6,0,7.2,0.3,7.2,0.8c0,0,0,0,0,0v1.4c0,0.2-0.2,0.3-0.3,0.4C6.2,2.7,5.5,3,5,3.4 C4.8,3.5,4.5,3.4,4.4,3.3l-1-1C3.1,2,2.6,2,2.3,2.3C2,2.6,2,3.1,2.3,3.4l1,1c0.1,0.1,0.2,0.3,0.1,0.5C2.9,5.5,2.6,6.3,2.6,7 c0,0.2-0.2,0.2-0.4,0.2H0.8C0.4,7.2,0,7.5,0,7.9C0,7.9,0,8,0,8c0,0.4,0.3,0.8,0.7,0.8c0,0,0.1,0,0.1,0h1.4c0.2,0,0.4,0.1,0.5,0.2 c0.1,0.7,0.4,1.3,0.7,1.8c0.1,0.2,0.1,0.5-0.1,0.6l-1,1c-0.3,0.3-0.3,0.8,0,1.1c0.3,0.3,0.8,0.3,1.1,0l1-1c0.1-0.1,0.3-0.2,0.5-0.1 c0.6,0.4,1.2,0.7,1.9,0.8c0.2,0,0.3,0.2,0.3,0.4v1.4c0,0.4,0.3,0.8,0.7,0.8c0,0,0.1,0,0.1,0c0.4,0,0.8-0.3,0.8-0.7c0,0,0-0.1,0-0.1 v-1.4c0-0.2,0.2-0.3,0.3-0.4c0.7-0.1,1.3-0.4,1.9-0.8c0.2-0.1,0.4-0.1,0.5,0.1l1,1c0.3,0.3,0.8,0.3,1.1,0c0.3-0.3,0.3-0.8,0-1.1 l-1-1c-0.1-0.1-0.2-0.3-0.1-0.5c0.3-0.5,0.6-1,0.8-1.5c0.1-0.2,0.2-0.7,0.4-0.7h1.5c0.4,0,0.8-0.3,0.8-0.7c0,0,0-0.1,0-0.1 c0.1-0.4-0.2-0.8-0.7-0.9C15.3,7.2,15.2,7.2,15.2,7.2z M11.8,9.1c-0.4,1.4-1.4,2.4-2.8,2.8c-2.2,0.6-4.4-0.7-5-2.8 C3.9,8.4,3.9,7.7,4.1,7c0.4-1.4,1.4-2.4,2.8-2.8c2.2-0.6,4.4,0.7,5,2.8C12,7.7,12,8.4,11.8,9.1z M8.8,8c0,0.4-0.3,0.8-0.7,0.8 c0,0-0.1,0-0.1,0c-0.4,0-0.8-0.3-0.8-0.7c0,0,0-0.1,0-0.1c0-0.4,0.3-0.8,0.7-0.8c0,0,0.1,0,0.1,0C8.4,7.2,8.8,7.5,8.8,8 C8.8,7.9,8.8,8,8.8,8z"/>
    </symbol>

    <symbol id="icon-info" viewBox="0 0 16 16">
        <path d="M0,1.6v12.8C0,15.3,0.7,16,1.6,16h12.8c0.9,0,1.6-0.7,1.6-1.6V1.6C16,0.7,15.3,0,14.4,0H1.6C0.7,0,0,0.7,0,1.6 z M13.6,14.4H8.8V8.8C8.8,8.4,8.5,8,8.1,8C8.1,8,8,8,8,8l0,0C7.6,8,7.2,8.3,7.2,8.7c0,0,0,0.1,0,0.1v5.6H2.4c-0.4,0-0.8-0.3-0.8-0.7 c0,0,0-0.1,0-0.1V2.4c0-0.4,0.3-0.8,0.7-0.8c0,0,0.1,0,0.1,0h11.2c0.4,0,0.8,0.3,0.8,0.7c0,0,0,0.1,0,0.1v11.2 C14.4,14,14.1,14.4,13.6,14.4C13.7,14.4,13.6,14.4,13.6,14.4z M8.8,5.2L8.8,5.2C8.8,5.6,8.5,6,8.1,6C8.1,6,8,6,8,6l0,0 C7.6,6,7.2,5.7,7.2,5.3c0,0,0-0.1,0-0.1l0,0c0-0.4,0.3-0.8,0.7-0.8c0,0,0.1,0,0.1,0l0,0C8.4,4.4,8.8,4.8,8.8,5.2z"/>
    </symbol>

    <symbol id="icon-message" viewBox="0 0 16 16">
        <path d="M9.7,1.7c2.6,0,4.7,2.1,4.7,4.6v7.9c0,0.2-0.1,0.3-0.3,0.3c-0.1,0-0.2,0-0.3-0.1c-3.7-3.9-3.1-3.2-3.7-4.1H6 c-2.5,0-4.4-2-4.4-4.4c0-2.4,2-4.4,4.5-4.3h3.5 M9.8,0H6.1C2.7,0,0,2.7,0,6s2.7,6,6.1,6h3.4l3.2,3.3c0.6,0.8,1.8,0.9,2.6,0.3 c0.4-0.3,0.7-0.9,0.7-1.4V6.3C16,2.9,13.2,0.1,9.8,0z"/>
    </symbol>

    <symbol id="icon-close" viewBox="0 0 16 16">
        <path d="M9.1,8l6.9,6.9L14.9,16L8,9.1L1.1,16L0,14.9L6.9,8L0,1.1L1.1,0L8,6.9L14.9,0L16,1.1L9.1,8z"/>
    </symbol>

    <symbol id="icon-filterclear" viewBox="0 0 16 16">
        <path id="Pfad_16" d="M8.8,10.7v0.5h-1l-2.2,1.1V16h4.8V9.9L8.8,10.7z M8.8,14.4H7.2v-1.6h1.6V14.4z M4.7,7.4L0,0h16l-1.7,2.6 c-0.1,0-0.2,0.1-0.2,0.1l-2.5,1.3l1.6-2.3H2.8l3.4,5L4.7,7.4z M0.1,12.3c-0.2-0.4,0-0.9,0.4-1.1c0,0,0,0,0,0l14.3-7.2 c0.4-0.2,0.8,0,1,0.3c0.2,0.4,0,0.8-0.3,1c0,0-14,7-14.5,7.2C0.7,12.8,0.3,12.7,0.1,12.3C0.1,12.4,0.1,12.3,0.1,12.3z"/>
    </symbol>

    <symbol id="icon-help" viewBox="0 0 16 16">
        <path d="M0,1.6v12.8C0,15.3,0.7,16,1.6,16h12.8c0.9,0,1.6-0.7,1.6-1.6V1.6C16,0.7,15.3,0,14.4,0H1.6 C0.7,0,0,0.7,0,1.6z M13.6,14.4H2.4c-0.4,0-0.8-0.3-0.8-0.7c0,0,0-0.1,0-0.1V2.4c0-0.4,0.3-0.8,0.7-0.8c0,0,0.1,0,0.1,0h11.2 c0.4,0,0.8,0.3,0.8,0.7c0,0,0,0.1,0,0.1v11.2C14.4,14,14.1,14.4,13.6,14.4C13.7,14.4,13.6,14.4,13.6,14.4z M4.6,4 c0-0.4,0.3-0.8,0.7-0.8c0,0,0.1,0,0.1,0H10c0.7,0,1.2,0.5,1.2,1.2v2c0,0.9-0.7,1.6-1.6,1.6H8.4C8.2,8,8,8.1,8,8.4c0,0,0,0,0,0v0.8 C8,9.6,7.7,10,7.3,10c0,0-0.1,0-0.1,0c-0.4,0-0.8-0.3-0.8-0.7c0,0,0-0.1,0-0.1V7.8C6.4,7,7,6.4,7.8,6.4c0,0,0,0,0,0h0.8 c0.4,0,0.8-0.3,0.8-0.7c0,0,0-0.1,0-0.1c0-0.4-0.3-0.8-0.7-0.8c0,0-0.1,0-0.1,0H5.4C5,4.8,4.7,4.5,4.6,4C4.6,4.1,4.6,4,4.6,4z M7.8,11.6c0,0.4-0.3,0.8-0.7,0.8c0,0-0.1,0-0.1,0c-0.4,0-0.8-0.4-0.8-0.8c0-0.4,0.4-0.8,0.8-0.8C7.5,10.8,7.8,11.2,7.8,11.6z"/>
    </symbol>

    <symbol id="icon-fullscreen" viewBox="0 0 16 16">
        <path d="M16,1.6C16,0.7,15.3,0,14.4,0c0,0,0,0,0,0H1.6C0.7,0,0,0.7,0,1.6v12.8C0,15.3,0.7,16,1.6,16 c0,0,0,0,0,0h12.8c0.9,0,1.6-0.7,1.6-1.6c0,0,0,0,0,0V1.6z M1.6,2.4c0-0.4,0.3-0.8,0.7-0.8c0,0,0.1,0,0.1,0h11.2 c0.4,0,0.8,0.3,0.8,0.7c0,0,0,0.1,0,0.1v11.2c0,0.4-0.3,0.8-0.7,0.8c0,0-0.1,0-0.1,0H7.2c-0.4,0-0.8-0.3-0.8-0.7c0,0,0-0.1,0-0.1 v-2.4c0-0.9-0.7-1.6-1.6-1.6H2.4C2,9.6,1.6,9.3,1.6,8.9c0,0,0-0.1,0-0.1L1.6,2.4z M6.4,4c0-0.4,0.3-0.8,0.7-0.8c0,0,0.1,0,0.1,0h4 c0.9,0,1.6,0.7,1.6,1.6l0,0v4c0,0.4-0.4,0.8-0.8,0.8s-0.8-0.4-0.8-0.8V6.9c0-0.2-0.2-0.4-0.5-0.4c-0.1,0-0.2,0-0.3,0.1L8.1,9 C7.8,9.3,7.3,9.3,7,8.9C6.7,8.6,6.7,8.1,7,7.8l2.4-2.4c0.1-0.1,0.2-0.4,0-0.5C9.3,4.8,9.2,4.8,9.1,4.8H7.2C6.8,4.8,6.4,4.5,6.4,4 C6.4,4.1,6.4,4,6.4,4z"/>
    </symbol>

    <symbol id="icon-add" viewBox="0 0 16 16">
        <path d="M16,7.2v1.6H8.8V16H7.2V8.8H0V7.2h7.2V0h1.6v7.2H16z"/>
    </symbol>

    <symbol id="icon-delete" viewBox="0 0 16 16">
        <path d="M12,3.2V0H4v3.2H0v1.6h2.4V16h11.2V4.8H16V3.2H12z M5.6,1.6h4.8v1.6H5.6V1.6z M12,14.4H4V4.8h8V14.4z M10.4,12.8H8.8V6.4h1.6V12.8z M7.2,12.8H5.6V6.4h1.6V12.8z"/>
    </symbol>

    <symbol id="icon-file" viewBox="0 0 16 16">
        <path d="M15.8,4.6l-4.3-4.3C11.3,0.1,11.1,0,10.9,0H1.6C0.7,0,0,0.7,0,1.6v12.8 C0,15.3,0.7,16,1.6,16c0,0,0,0,0,0h12.8c0.9,0,1.6-0.7,1.6-1.6c0,0,0,0,0,0V5.1C16,4.9,15.9,4.7,15.8,4.6z M14.4,13.6 c0,0.4-0.3,0.8-0.7,0.8c0,0-0.1,0-0.1,0H2.4c-0.4,0-0.8-0.3-0.8-0.7c0,0,0-0.1,0-0.1V2.4c0-0.4,0.3-0.8,0.7-0.8c0,0,0.1,0,0.1,0h7.2 v3.2c0,0.9,0.7,1.6,1.6,1.6l0,0h3.2L14.4,13.6z M4,8h8c0.4,0,0.8,0.3,0.8,0.7c0,0,0,0.1,0,0.1c0,0.4-0.3,0.8-0.7,0.8 c0,0-0.1,0-0.1,0H4c-0.4,0-0.8-0.3-0.8-0.7c0,0,0-0.1,0-0.1C3.2,8.4,3.5,8,4,8C3.9,8,4,8,4,8z M12.8,12c0,0.4-0.3,0.8-0.7,0.8 c0,0-0.1,0-0.1,0H4c-0.4,0-0.8-0.4-0.8-0.8s0.4-0.8,0.8-0.8h8C12.4,11.2,12.8,11.5,12.8,12C12.8,11.9,12.8,12,12.8,12z"/>
    </symbol>

    <symbol id="icon-fileimport" viewBox="0 0 16 16">
        <path d="M16,14.4V5.1c0-0.2,0-0.4-0.2-0.6l-4.3-4.3C11.4,0.1,11.2,0,11,0H1.7C0.8,0,0.1,0.7,0.1,1.6 H0v12.8h0.1c0,0.9,0.7,1.6,1.6,1.6h12.8c0.8,0,1.5-0.6,1.5-1.5C16,14.5,16,14.4,16,14.4L16,14.4z M14.4,13.6c0,0.4-0.3,0.8-0.7,0.8 c0,0,0,0-0.1,0H7.2V9.5c0-0.2,0.2-0.4,0.5-0.4c0.1,0,0.2,0,0.2,0.1l0.8,0.7c0.3,0.3,0.8,0.3,1.1,0c0,0,0,0,0,0l0,0 c0.3-0.3,0.3-0.8,0-1.1c0,0,0,0,0,0L7.6,6.6C7,6.1,6,6.1,5.4,6.6L3.1,8.8c-0.3,0.3-0.3,0.8,0,1.1c0,0,0,0,0,0l0,0 c0.3,0.3,0.8,0.3,1.1,0c0,0,0,0,0,0L5,9.2c0.1-0.1,0.4-0.1,0.5,0c0.1,0.1,0.1,0.2,0.1,0.3v4.9H2.5c-0.5,0-0.8-0.3-0.9-0.8V2.4 C1.7,2,2,1.6,2.5,1.6h7.1v3.2c0,0.9,0.8,1.6,1.7,1.6h3.1L14.4,13.6z"/>
    </symbol>

    <symbol id="icon-minimize" viewBox="0 0 16 16">
        <path d="M1.6,6.4H0V0h6.4v1.6H1.6V6.4z M1.6,9.6H0V16h6.4v-1.6H1.6V9.6z M14.4,14.4H9.6V16H16V9.6h-1.6L14.4,14.4z M9.6,0v1.6h4.8v4.8H16V0H9.6z M4.8,8.8h6.4V7.2H4.8V8.8z"/>
    </symbol>

    <symbol id="icon-maximize" viewBox="0 0 16 16">
        <path d="M1.6,6.4H0C0,1,0,2.3,0,0c2.6,0,3.7,0,6.4,0v1.6H1.6V6.4z M1.6,9.6H0c0,2.6,0,3.8,0,6.4c2.6,0,3.7,0,6.4,0 v-1.6H1.6V9.6z M14.4,14.4H9.6V16c2.3,0,4.1,0,6.4,0c0-2.6,0-3.8,0-6.4h-1.6V14.4z M9.6,0v1.6h4.8v4.8H16c0-3.9,0,3.8,0-6.4 C13.7,0,11.9,0,9.6,0z M11.2,7.2H8.8V4.8H7.2v2.4H4.8v1.6h2.4v2.4h1.6V8.8h2.4V7.2z"/>
    </symbol>

    <symbol id="icon-external" viewBox="0 0 16 16">
        <path d="M16,10.4v4c0,0.9-0.3,1.6-1.3,1.6H1.9C1,16,0.2,15.3,0,14.4V1.6C0.2,0.7,1,0,1.9,0h4 c0.4,0,0.8,0.3,0.8,0.7c0,0,0,0.1,0,0.1c0,0.4-0.3,0.8-0.7,0.8c0,0-0.1,0-0.1,0H2.7C2.3,1.6,1.6,2,1.6,2.4v10.4 c0.2,0.9,1,1.6,1.9,1.6h10.4c0.5,0,0.5-0.3,0.5-0.8v-3.2c0-0.4,0.3-0.8,0.7-0.8c0,0,0.1,0,0.1,0C15.6,9.6,16,10,16,10.4z M9.4,8.1 L14,3.4c0.2-0.2,0.5-0.1,0.6,0c0.1,0.1,0.1,0.1,0.1,0.2v1.1c0,0.4,0.4,0.8,0.8,0.8h-0.2c0.5,0,0.6-0.4,0.6-0.8V1.6 C16,0.7,15.3,0,14.4,0h-2.8c-0.5,0-1.2,0.3-1.2,0.8l0,0c0.1,0.5,0.5,0.8,1,0.8h1.2C12.8,1.6,13,1.8,13,2c0,0.1-0.1,0.2-0.2,0.3 L8.2,7c-0.3,0.3-0.3,0.8,0,1.1c0,0,0,0,0,0C8.5,8.4,9,8.4,9.4,8.1z"/>
    </symbol>

    <symbol id="icon-infomsg" viewBox="0 0 16 16">
        <path d="M8,16c-4.4,0-8-3.6-8-8c0-4.4,3.6-8,8-8c4.4,0,8,3.6,8,8C16,12.4,12.4,16,8,16z M6.1,10.4V12h3.6v-1.6H8.8 V5.9H6.1v1.6H7v2.9H6.1z M7.9,2.9C7.8,2.9,7.6,3,7.5,3C7.4,3.1,7.3,3.1,7.2,3.2C7.1,3.3,7,3.4,7,3.6C6.9,3.7,6.9,3.8,6.9,4 c0,0.1,0,0.3,0.1,0.4C7,4.5,7.1,4.6,7.2,4.7c0.1,0.1,0.2,0.2,0.3,0.2C7.6,5,7.8,5,7.9,5c0.1,0,0.3,0,0.4-0.1 c0.1-0.1,0.2-0.1,0.3-0.2c0.1-0.1,0.2-0.2,0.2-0.3C8.9,4.2,9,4.1,9,4c0-0.1,0-0.3-0.1-0.4C8.8,3.4,8.8,3.3,8.7,3.2 C8.6,3.1,8.5,3.1,8.3,3C8.2,3,8.1,2.9,7.9,2.9L7.9,2.9z"/>
    </symbol>

    <symbol id="icon-alarmmsg" viewBox="0 0 16 16">
        <path d="M8,16c-4.4,0-8-3.6-8-8c0-4.4,3.6-8,8-8c4.4,0,8,3.6,8,8C16,12.4,12.4,16,8,16z M8,2.9 c-0.2,0-0.4,0.2-0.5,0.4c0,0,0,0,0,0v0.5C6.2,4,5.2,5.2,5.3,6.6v2.3c0,0.2-0.2,0.4-0.4,0.5c0,0,0,0,0,0c-0.2,0-0.4,0.2-0.5,0.4 c0,0,0,0,0,0c0,0.2,0.2,0.4,0.4,0.5c0,0,0,0,0,0h1.8v0.5C6.6,11.4,7.2,12,8,12c0,0,0,0,0.1,0c0.7,0,1.3-0.6,1.4-1.3c0,0,0,0,0-0.1 v-0.5h1.8c0.2,0,0.4-0.2,0.5-0.4c0,0,0,0,0,0c0-0.2-0.2-0.4-0.4-0.5c0,0,0,0,0,0c-0.2,0-0.4-0.2-0.5-0.4c0,0,0,0,0,0V6.6 C10.8,5.2,9.8,4,8.5,3.9V3.4C8.5,3.1,8.3,2.9,8,2.9C8.1,2.9,8,2.9,8,2.9z M8,11.1c-0.2,0-0.4-0.2-0.5-0.4c0,0,0,0,0,0v-0.5h0.9v0.5 C8.5,10.9,8.3,11.1,8,11.1C8.1,11.1,8,11.1,8,11.1z M9.8,9.3H6.2V6.6c0-1,0.7-1.8,1.7-1.8c0.1,0,0.1,0,0.2,0c1,0,1.8,0.7,1.8,1.7 c0,0.1,0,0.1,0,0.2L9.8,9.3L9.8,9.3z"/>
    </symbol>

    <symbol id="icon-messagemsg" viewBox="0 0 16 16">
        <path d="M8,16c-4.4,0-8-3.6-8-8c0-4.4,3.6-8,8-8c4.4,0,8,3.6,8,8C16,12.4,12.4,16,8,16z M6.5,3.5 c-2-0.1-3.6,1.5-3.7,3.5c0,0,0,0.1,0,0.1c0,2,1.6,3.6,3.6,3.6c0,0,0.1,0,0.1,0h2l1.9,2c0.2,0.3,0.6,0.4,0.9,0.4 c0.3,0,0.6-0.1,0.8-0.3c0.2-0.2,0.3-0.5,0.3-0.8V7.3c0-2.1-1.6-3.7-3.7-3.8L6.5,3.5z M11.3,12.3c-0.1,0-0.1,0-0.2-0.1l-0.9-1 C9.8,10.8,9.4,10.4,9,9.9L8.9,9.8H6.4C5,9.8,3.8,8.7,3.8,7.2c0,0,0,0,0-0.1c0-1.5,1.2-2.6,2.7-2.6c0,0,0,0,0.1,0h2.1l0.1,0 c1.5,0,2.8,1.2,2.8,2.8v4.7C11.4,12.2,11.4,12.3,11.3,12.3C11.3,12.3,11.3,12.3,11.3,12.3L11.3,12.3z"/>
    </symbol>

    <symbol id="icon-readymsg" viewBox="0 0 16 16">
        <path id="msg_done" d="M8,16c-4.4,0-8-3.6-8-8c0-4.4,3.6-8,8-8c4.4,0,8,3.6,8,8C16,12.4,12.4,16,8,16z M5.5,6.8 C5.2,6.8,5,6.9,4.8,7.1C4.7,7.3,4.6,7.5,4.6,7.7c0,0.2,0.1,0.5,0.3,0.6L6.4,10c0.2,0.3,0.6,0.4,0.9,0.4c0.4,0,0.7-0.1,0.9-0.4 l3.5-3.5c0.2-0.2,0.3-0.4,0.3-0.6c0-0.2-0.1-0.5-0.3-0.6C11.7,5.1,11.4,5,11.2,5c-0.2,0-0.5,0.1-0.6,0.3L8,7.7C7.8,7.9,7.6,8,7.3,8 C7.1,8,6.9,7.9,6.7,7.7L6.1,7.1C5.9,6.9,5.7,6.8,5.5,6.8z"/>
    </symbol>

    <symbol id="icon-warningmsg" viewBox="0 0 16 16">
        <path id="msg_warning" d="M8,16c-4.4,0-8-3.6-8-8c0-4.4,3.6-8,8-8c4.4,0,8,3.6,8,8C16,12.4,12.4,16,8,16z M8.1,10.7 c-0.6,0-1,0.5-1,1c0,0.6,0.5,1,1,1c0.6,0,1-0.5,1-1C9.1,11.2,8.6,10.7,8.1,10.7L8.1,10.7z M6.7,3.7l0.7,5.6h1.4l0.7-5.6L6.7,3.7 L6.7,3.7z"/>
    </symbol>

    <symbol id="icon-accordion" viewBox="0 0 12 12">
        <path d="M3,0v12l6-6L3,0z"/>
    </symbol>

    <symbol id="icon-symbol-meter" viewBox="0 0 64 64">
        <path d="M8,30h8v4H8V30z M56.4,11.4l-3,2.6c9.9,11.8,8.4,29.5-3.5,39.4s-29.5,8.4-39.4-3.5S2.2,20.5,14,10.5 C19,6.3,25.4,4,32,4c6.6,0.1,13.1,2.4,18.2,6.6l2.6-3C47,2.7,39.6,0,32,0C14.3,0,0,14.3,0,32s14.3,32,32,32s32-14.3,32-32 C64.1,24.4,61.4,17.1,56.4,11.4z M32,46c4.2-0.1,8,2.1,10.2,5.6l3.4-2.2c-4.9-7.5-14.9-9.7-22.4-4.8c-1.9,1.2-3.6,2.9-4.8,4.8 l3.4,2.2C24,48.1,27.8,45.9,32,46z M22.2,19.2l-5.8-5.6l-2.8,2.8l5.6,5.6L22.2,19.2z M56,30h-8v4h8V30z M30,8v8h4V8H30z M47.6,13.6 L30,31l2.8,2.8l17.6-17.4L47.6,13.6z"/>
    </symbol>

    <symbol id="icon-symbol-world" viewBox="0 0 64 64">
        <path d="M32,0C14.3,0,0,14.3,0,32s14.3,32,32,32s32-14.3,32-32S49.7,0,32,0z M32,60C16.5,60,4,47.5,4,32S16.5,4,32,4 s28,12.5,28,28S47.5,60,32,60z M55.8,26.6l-4.4,16.3L35,57.2l2.8-18l-13-6.6l7.8-9.6l-2.7-1l-10.6,2.4l-6.5-4.9l2.4-3.2l5,3.8 l9.9-2.3l9.2,3.3L31,31.3l11.2,5.6l-1.6,10l7.2-6.3l4-15.1L55.8,26.6z M10.7,38l12.5,1.3L21,50.4l-4-0.8l1.3-6.8l-8-0.8L10.7,38z"/>
    </symbol>

    <!-- Taken from XDCC Self Service. Not checked by CPK, yet -->
    <symbol id="icon-port" viewBox="0 0 128 108">>
        <path d="M0,0v75.9h25.7v20.6h15.7V108h45.3V96.4h15.7V75.9H128V0H0z M30.1,24.9h-6V4.4h6V24.9z M40.7,24.9h-6V4.4h6V24.9z M51.2,24.9h-6V4.4h6V24.9z M61.7,24.9h-6V4.4h6V24.9z M72.3,24.9h-6V4.4h6V24.9z M82.8,24.9h-6V4.4h6V24.9z M93.4,24.9h-6V4.4h6V24.9z M103.9,24.9h-6V4.4h6V24.9z"/>
    </symbol>

    <!-- XYNA FACTORY ICONS -->
    <symbol id="icon-xyna-processmodeller" viewBox="0 0 24 24">
        <path d="M0,7.2v9.6h24V7.2H0z M22.6,15.2H1.4V8.8h21.2V15.2z M3.5,20.8h6.4v1.6H2.1v-4h1.4V20.8z M20.5,18.4h1.4v4h-7.8v-1.6h6.4L20.5,18.4z M20.5,3.2h-6.4V1.6h7.8v4h-1.4V3.2z M3.5,5.6H2.1v-4h7.8v1.6H3.5V5.6z M11.3,12.8H2.8 v-1.6h8.5V12.8z M21.2,12.8h-1.4v-1.6h1.4L21.2,12.8z M12.7,3.2h-1.4V0h1.4L12.7,3.2z M11.3,20.8h1.4V24h-1.4V20.8z"/>
    </symbol>

    <symbol id="icon-xyna-factorymanager" viewBox="0 0 24 24">
        <path d="M3.9,0H2.1v6h1.7V0z M2.1,15h1.7v9H2.1V15z M3.4,7.5c-1.8-0.1-3.3,1.2-3.4,3 c0.1,1.8,1.7,3.1,3.4,3c1.8,0.1,3.3-1.2,3.4-3C6.7,8.7,5.2,7.4,3.4,7.5z M3.4,12c-0.9,0.1-1.6-0.6-1.7-1.5C1.8,9.6,2.5,9,3.4,9 C4.3,9,5.1,9.6,5.1,10.5C5.1,11.4,4.3,12.1,3.4,12L3.4,12z M12.4,12h-1.7V0h1.7V12z M10.7,21h1.7v3h-1.7V21z M12,13.5 c-1.8-0.1-3.3,1.2-3.4,3c0.1,1.8,1.7,3.1,3.4,3c1.8,0.1,3.3-1.2,3.4-3C15.3,14.7,13.8,13.4,12,13.5z M12,18 c-0.9,0.1-1.7-0.6-1.7-1.5c0.1-0.9,0.8-1.6,1.7-1.5c0.9-0.1,1.6,0.6,1.7,1.5C13.6,17.4,12.9,18.1,12,18z M21,3h-1.7V0H21V3z M19.3,12H21v12h-1.7V12z M20.6,4.5c-1.8-0.1-3.3,1.2-3.4,3c0.1,1.8,1.7,3.1,3.4,3c1.8,0.1,3.3-1.2,3.4-3 C23.9,5.7,22.3,4.4,20.6,4.5L20.6,4.5z M20.6,9c-0.9,0.1-1.7-0.6-1.7-1.5c0.1-0.9,1-1.6,1.9-1.5c0.8,0.1,1.4,0.7,1.5,1.5 C22.2,8.4,21.5,9.1,20.6,9L20.6,9z"/>
    </symbol>

    <symbol id="icon-xyna-processmonitor" viewBox="0 0 24 24">
        <path d="M11.9,4.5h0.1c5.4,0,10,3,10.5,6.8l1.5-0.2C23.4,6.6,18.2,3,12.1,3h-0.1C5.6,3,0.5,6.6,0,11.2 l1.5,0.2C1.9,7.5,6.5,4.5,11.9,4.5z M22.5,12.7c-0.4,3.8-5,6.8-10.4,6.8h-0.1c-5.4,0-10-3-10.5-6.8L0,12.8C0.6,17.4,5.8,21,11.9,21 h0.1c6.3,0,11.4-3.6,11.9-8.2L22.5,12.7z M12,6c-3.3,0-6,2.7-6,6s2.7,6,6,6h0.1c3.3,0,6-2.7,5.9-6C18,8.6,15.3,6,12,6z M15.2,15.2 c-0.8,0.9-2,1.3-3.2,1.3h0c-2.4-0.1-4.4-2-4.5-4.5c0-2.5,2-4.5,4.5-4.5c2.5,0,4.5,2,4.5,4.5C16.5,13.2,16,14.3,15.2,15.2z M10.5,12 L9,12c0-1.7,1.3-3,3-3l0,1.5C11.2,10.5,10.5,11.2,10.5,12C10.5,12,10.5,12,10.5,12z"/>
    </symbol>

    <symbol id="icon-xyna-testfactory" viewBox="0 0 24 24">
        <path d="M3.2,8.2C1.4,8.3,0,9.8,0,11.6c0,0,0,0,0,0c-0.1,1.8,1.4,3.4,3.2,3.5c1.8-0.1,3.3-1.6,3.2-3.5C6.5,9.8,5.1,8.3,3.2,8.2 C3.2,8.3,3.2,8.3,3.2,8.2z M3.2,13.7c-1.1,0-2-0.9-2-2c0-1.1,0.9-2,2-2c1.1,0,2,0.9,1.9,2C5.2,12.8,4.4,13.7,3.2,13.7 C3.3,13.7,3.2,13.7,3.2,13.7z  M20.8,6.8c1.8-0.1,3.3-1.6,3.2-3.4C24,1.6,22.6,0.1,20.8,0c0,0,0,0,0,0c-1.8,0.1-3.3,1.6-3.2,3.4 C17.5,5.3,18.9,6.8,20.8,6.8C20.8,6.8,20.8,6.8,20.8,6.8z M20.8,1.3c1.1,0,2,0.9,1.9,2c0,1.1-0.9,2-1.9,2c-1.1,0-2-0.9-2-1.9 c0,0,0,0,0,0C18.8,2.3,19.6,1.4,20.8,1.3C20.7,1.4,20.8,1.4,20.8,1.3z M9.8,17.2c-1.8,0.1-3.3,1.6-3.2,3.5c-0.1,1.8,1.4,3.3,3.2,3.4 c0,0,0,0,0,0c1.8-0.1,3.3-1.6,3.2-3.5C13,18.7,11.6,17.2,9.8,17.2C9.8,17.2,9.8,17.2,9.8,17.2z M9.8,22.7c-1.1,0-2-0.9-2-2 c0-1.1,0.9-2,2-2c1.1,0,2,0.9,1.9,2C11.7,21.7,10.8,22.6,9.8,22.7z M17.8,6.6l1.1,0.7l-6.2,10l-1.1-0.7L17.8,6.6z M6.5,14.4l1,1.9 l-1,0.8l-1-1.9L6.5,14.4z"/>
    </symbol>

    <symbol id="icon-xyna-misc-splitview" viewBox="0 0 16 16">
        <path d="M14.4,1.6h-3.2c-0.4,0-0.8,0.3-0.8,0.7c0,0,0,0.1,0,0.1v10.4c0,0.9,0.7,1.6,1.6,1.6h2.4 c0.9,0,1.6-0.7,1.6-1.6V3.2C16,2.3,15.3,1.6,14.4,1.6L14.4,1.6z M14.4,12c0,0.4-0.3,0.8-0.7,0.8c0,0-0.1,0-0.1,0h-0.8 c-0.4,0-0.8-0.3-0.8-0.7c0,0,0-0.1,0-0.1V4c0-0.4,0.3-0.8,0.7-0.8c0,0,0.1,0,0.1,0h0.8c0.4,0,0.8,0.3,0.8,0.7c0,0,0,0.1,0,0.1 L14.4,12z M4,1.6H1.6C0.7,1.6,0,2.3,0,3.2v9.6c0,0.9,0.7,1.6,1.6,1.6c0,0,0,0,0,0H4c0.9,0,1.6-0.7,1.6-1.6l0,0V3.2 C5.6,2.3,4.9,1.6,4,1.6z M4,12c0,0.4-0.3,0.8-0.7,0.8c0,0-0.1,0-0.1,0H2.4c-0.4,0-0.8-0.3-0.8-0.7c0,0,0-0.1,0-0.1V4 c0-0.4,0.3-0.8,0.7-0.8c0,0,0.1,0,0.1,0h0.8C3.6,3.2,4,3.5,4,3.9C4,3.9,4,4,4,4V12z M8.8,0.8v14.4c0,0.4-0.3,0.8-0.7,0.8 c0,0-0.1,0-0.1,0c-0.4,0-0.8-0.3-0.8-0.7c0,0,0-0.1,0-0.1V0.8C7.2,0.4,7.5,0,7.9,0C7.9,0,8,0,8,0C8.4,0,8.8,0.3,8.8,0.8 C8.8,0.7,8.8,0.8,8.8,0.8z"/>
    </symbol>

    <symbol id="icon-xyna-misc-view" viewBox="0 0 16 16">
        <path d="M8,3.4C4.7,3.3,1.6,5.1,0,8c2.5,4.4,8.2,6,12.6,3.4c1.4-0.8,2.6-2,3.4-3.4C14.4,5.1,11.3,3.3,8,3.4z M8,11 c-2.4,0-4.6-1.1-6.1-3c2.5-3.4,7.3-4,10.6-1.5c0.6,0.4,1.1,0.9,1.5,1.5C12.6,9.9,10.4,11,8,11z M9.6,8c0,0.9-0.7,1.6-1.6,1.6 C7.1,9.6,6.4,8.9,6.4,8c0-0.9,0.7-1.6,1.6-1.6S9.6,7.1,9.6,8L9.6,8z"/>
    </symbol>

    <symbol id="icon-xyna-misc-collapse" viewBox="0 0 16 16">
        <path d="M7.5,15.8c-0.3-0.3-0.3-0.8-0.1-1.1l6.3-6.1c0.3-0.3,0.3-0.8,0-1.1c0,0,0,0,0,0L7.4,1.4 c-0.3-0.3-0.3-0.8,0-1.1c0,0,0,0,0,0c0.3-0.3,0.8-0.3,1.1,0c0,0,0,0,0,0l6.9,6.6c0.6,0.6,0.7,1.5,0.1,2.1c0,0-0.1,0.1-0.1,0.1 l-6.8,6.6C8.5,15.9,8.3,16,8.1,16C7.9,16,7.7,15.9,7.5,15.8z M0.3,15.8C0,15.5,0,15,0.2,14.6l6.3-6.1c0.3-0.3,0.3-0.8,0-1.1 c0,0,0,0,0,0L0.2,1.4c-0.3-0.3-0.3-0.8,0-1.1c0,0,0,0,0,0c0.3-0.3,0.8-0.3,1.1,0c0,0,0,0,0,0l6.9,6.6C8.9,7.4,9,8.4,8.4,9 c0,0-0.1,0.1-0.1,0.1l-6.8,6.6C1.3,15.9,1.1,16,0.9,16C0.7,16,0.5,15.9,0.3,15.8L0.3,15.8z"/>
    </symbol>

    <symbol id="icon-xyna-misc-contextmenu" viewBox="0 0 16 16">
        <path d="M10,2c0,1.1-0.9,2-2,2S6,3.1,6,2s0.9-2,2-2C9.1,0,10,0.9,10,2z M10,8c0,1.1-0.9,2-2,2S6,9.1,6,8s0.9-2,2-2 C9.1,6,10,6.9,10,8z M10,14c0,1.1-0.9,2-2,2s-2-0.9-2-2s0.9-2,2-2C9.1,12,10,12.9,10,14z"/>
    </symbol>

    <symbol id="icon-xyna-tb-newfile" viewBox="0 0 16 16">
        <path d="M12,16v-2.4H9.6V12H12V9.6h1.6V12H16v1.6h-2.4V16H12z M1.6,16C0.7,16,0,15.3,0,14.4V1.6C0,0.7,0.7,0,1.6,0 h9.3c0.2,0,0.4,0.1,0.6,0.2l4.3,4.3C15.9,4.7,16,4.9,16,5.1v2.1h-1.6V6.4h-3.2c-0.9,0-1.6-0.7-1.6-1.6V1.6H2.4 C2,1.6,1.6,1.9,1.6,2.3c0,0,0,0.1,0,0.1v11.2c0,0.4,0.3,0.8,0.7,0.8c0,0,0.1,0,0.1,0h4.8V16L1.6,16L1.6,16z M4,12.8 c-0.4,0-0.8-0.3-0.8-0.7c0,0,0-0.1,0-0.1c0-0.4,0.3-0.8,0.7-0.8c0,0,0.1,0,0.1,0h3.2v1.6H4z M7.3,9.6H4c-0.4,0-0.8-0.3-0.8-0.7 c0,0,0-0.1,0-0.1C3.2,8.4,3.5,8,3.9,8C3.9,8,4,8,4,8h4.3C7.8,8.4,7.5,9,7.3,9.6L7.3,9.6z"/>
    </symbol>

    <symbol id="icon-xyna-tb-save" viewBox="0 0 16 16">
        <path d="M14.4,0H5.1C4.9,0,4.7,0.1,4.6,0.2L0.2,4.6C0.1,4.7,0,4.9,0,5.1v9.3C0,15.3,0.7,16,1.6,16 c0,0,0,0,0,0h12.8c0.9,0,1.6-0.7,1.6-1.6c0,0,0,0,0,0V1.6C16,0.7,15.3,0,14.4,0C14.4,0,14.4,0,14.4,0z M4.8,2.2l0.6-0.6h5.8V4 c0,0.4-0.3,0.8-0.7,0.8c0,0-0.1,0-0.1,0H5.6c-0.4,0-0.8-0.3-0.8-0.7c0,0,0-0.1,0-0.1V2.2z M11.2,14.4H4.8V12c0-0.4,0.3-0.8,0.7-0.8 c0,0,0.1,0,0.1,0h4.8c0.4,0,0.8,0.3,0.8,0.7c0,0,0,0.1,0,0.1L11.2,14.4z M14.4,13.6c0,0.4-0.3,0.8-0.7,0.8c0,0-0.1,0-0.1,0h-0.8 v-3.2c0-0.9-0.7-1.6-1.6-1.6c0,0,0,0,0,0H4.8c-0.9,0-1.6,0.7-1.6,1.6l0,0v3.2H2.4c-0.4,0-0.8-0.3-0.8-0.7c0,0,0-0.1,0-0.1v-8 c0-0.1,0.1-0.2,0.1-0.3l1.5-1.4v1c0,0.9,0.7,1.6,1.6,1.6h6.4c0.9,0,1.6-0.7,1.6-1.6l0,0V1.6h0.8c0.4,0,0.8,0.3,0.8,0.7 c0,0,0,0.1,0,0.1L14.4,13.6z M5.5,3.2c0-0.4,0.3-0.8,0.7-0.8c0,0,0.1,0,0.1,0c0.4,0,0.8,0.3,0.8,0.7c0,0,0,0.1,0,0.1 C7.1,3.6,6.8,4,6.4,4c0,0-0.1,0-0.1,0C5.9,4,5.5,3.7,5.5,3.2C5.5,3.3,5.5,3.2,5.5,3.2z"/>
    </symbol>

    <symbol id="icon-xyna-tb-deploy" viewBox="0 0 16 16">
        <path d="M15,11c0.6,0,1,0.4,1,1s-0.4,1-1,1h-0.2c0,0.1-0.1,0.2-0.1,0.3l0.1,0.1c0.4,0.4,0.4,1,0,1.4 c-0.4,0.4-1,0.4-1.4,0l-0.1-0.1c-0.1,0-0.2,0.1-0.3,0.1V15c0,0.6-0.4,1-1,1s-1-0.4-1-1v-0.2c-0.1,0-0.2-0.1-0.3-0.1l-0.1,0.1 c-0.4,0.4-1,0.4-1.4,0c-0.4-0.4-0.4-1,0-1.4l0.1-0.1c0-0.1-0.1-0.2-0.1-0.3H9c-0.6,0-1-0.4-1-1s0.4-1,1-1h0.2c0-0.1,0.1-0.2,0.1-0.3 l-0.1-0.1c-0.4-0.4-0.4-1,0-1.4c0.4-0.4,1-0.4,1.4,0l0.1,0.1c0.1,0,0.2-0.1,0.3-0.1V9c0-0.6,0.4-1,1-1s1,0.4,1,1v0.2 c0.1,0,0.2,0.1,0.3,0.1l0.1-0.1c0.4-0.4,1-0.4,1.4,0c0.4,0.4,0.4,1,0,1.4l-0.1,0.1c0,0.1,0.1,0.2,0.1,0.3H15z M12,10 c-1.1,0-2,0.9-2,2s0.9,2,2,2s2-0.9,2-2C14,10.9,13.1,10,12,10z M9,6H8.9C8.8,6.4,8.6,6.7,8.4,7l0.1,0.1c0.4,0.4,0.4,1,0,1.4 c-0.4,0.4-1,0.4-1.4,0L7,8.4C6.7,8.6,6.4,8.8,6,8.9V9c0,0.5-0.4,1-0.9,1c0,0-0.1,0-0.1,0c-0.5,0-1-0.4-1-0.9C4,9.1,4,9,4,9V8.9 C3.6,8.8,3.3,8.6,3,8.4L2.9,8.5c-0.4,0.4-1,0.4-1.4,0c0,0,0,0,0,0c-0.4-0.4-0.4-1,0-1.4c0,0,0,0,0,0L1.6,7C1.4,6.7,1.2,6.4,1.1,6H1 C0.5,6,0,5.6,0,5.1C0,5.1,0,5,0,5c0-0.5,0.4-1,0.9-1C0.9,4,1,4,1,4h0.1c0.1-0.4,0.2-0.7,0.4-1V2.9c-0.4-0.4-0.4-1,0-1.4c0,0,0,0,0,0 c0.4-0.4,1-0.4,1.4,0c0,0,0,0,0,0L3,1.6c0.3-0.2,0.7-0.3,1-0.4V1c0-0.5,0.4-1,0.9-1C4.9,0,5,0,5,0c0.5,0,1,0.4,1,0.9C6,0.9,6,1,6,1 v0.1c0.4,0.1,0.7,0.2,1,0.4l0.1-0.1c0.4-0.4,1-0.4,1.4,0c0,0,0,0,0,0c0.4,0.4,0.4,1,0,1.4c0,0,0,0,0,0L8.4,3c0.2,0.3,0.3,0.7,0.4,1 H9c0.5,0,1,0.4,1,0.9c0,0,0,0.1,0,0.1c0,0.5-0.4,1-0.9,1C9.1,6,9,6,9,6z M5,3C3.9,3,3,3.9,3,5s0.9,2,2,2s2-0.9,2-2C7,3.9,6.1,3,5,3z"/>
    </symbol>

    <symbol id="icon-xyna-tb-print" viewBox="0 0 16 16">
        <path d="M14.4,4.8V1.6c0-0.9-0.7-1.6-1.6-1.6H3.2C2.3,0,1.6,0.7,1.6,1.6v3.2C0.7,4.8,0,5.5,0,6.4v6.4 c0,0.9,0.7,1.6,1.6,1.6c0,0,0,0,0,0h0.8C2.4,15.3,3.1,16,4,16h8c0.9,0,1.6-0.7,1.6-1.6c0,0,0,0,0,0h0.8c0.9,0,1.6-0.7,1.6-1.6V6.4 C16,5.5,15.3,4.8,14.4,4.8L14.4,4.8z M3.2,2.4c0-0.4,0.3-0.8,0.7-0.8c0,0,0.1,0,0.1,0h8c0.4,0,0.8,0.3,0.8,0.7c0,0,0,0.1,0,0.1v2.4 H3.2V2.4z M12,13.6c0,0.4-0.3,0.8-0.7,0.8c0,0-0.1,0-0.1,0H4.8c-0.4,0-0.8-0.3-0.8-0.7c0,0,0-0.1,0-0.1v-2.4h8V13.6z M14.4,12.4 c0,0.2-0.1,0.4-0.4,0.4c0,0,0,0,0,0h-0.4V9.6H2.4v3.2H2c-0.2,0-0.4-0.1-0.4-0.4c0,0,0,0,0,0V7.2c0-0.4,0.3-0.8,0.7-0.8 c0,0,0.1,0,0.1,0h11.2c0.4,0,0.8,0.3,0.8,0.7c0,0,0,0.1,0,0.1L14.4,12.4z M4.2,7.8c0,0.4-0.3,0.8-0.7,0.8c0,0-0.1,0-0.1,0 c-0.4,0-0.8-0.3-0.8-0.7c0,0,0-0.1,0-0.1c0-0.4,0.3-0.8,0.7-0.8c0,0,0.1,0,0.1,0C3.8,7.1,4.1,7.4,4.2,7.8z M7.4,7.8 c0,0.4-0.3,0.8-0.7,0.8c0,0-0.1,0-0.1,0c-0.4,0-0.8-0.3-0.8-0.7c0,0,0-0.1,0-0.1c0-0.4,0.3-0.8,0.7-0.8c0,0,0.1,0,0.1,0 C7,7.1,7.3,7.4,7.4,7.8z"/>
    </symbol>

    <symbol id="icon-xyna-tb-workflow" viewBox="0 0 16 16">
        <path d="M15.1,10.7H0.9C0.4,10.7,0,10.3,0,9.8V6.2c0-0.5,0.4-0.9,0.9-0.9h14.3c0.5,0,0.8,0.4,0.8,0.9v3.7 C16,10.3,15.6,10.7,15.1,10.7z M15.3,12.7V12H14v0.7c0,1.1-0.8,2-1.9,2c0,0,0,0-0.1,0H4c-1.1,0-2-0.8-2-1.9c0,0,0,0,0-0.1V12H0.7 v0.7c0,1.8,1.4,3.3,3.3,3.3c0,0,0,0,0.1,0h8C13.8,16,15.3,14.6,15.3,12.7C15.3,12.7,15.3,12.7,15.3,12.7z M15.3,3.3 c0-1.8-1.4-3.3-3.3-3.3c0,0,0,0-0.1,0H4C2.2,0,0.7,1.4,0.7,3.3c0,0,0,0,0,0.1V4H2V3.3c0-1.1,0.8-2,1.9-2c0,0,0,0,0.1,0h8 c1.1,0,2,0.8,2,1.9c0,0,0,0,0,0.1V4h1.3V3.3z"/>
    </symbol>

    <symbol id="icon-xyna-tb-datatype" viewBox="0 0 16 16">
        <path d="M14.7,5H1.3C0.6,5,0,5.7,0,6.5v3C0,10.3,0.6,11,1.3,11h13.3c0.7,0,1.3-0.7,1.3-1.5v-3C16,5.7,15.4,5,14.7,5z M14.7,9.5H3.7v-3h10.9V9.5z"/>
    </symbol>

    <symbol id="icon-xyna-tb-mapping" viewBox="0 0 16 16">
        <path d="M7.2,11.9l1.3-1.2l2.2,2V0h1.9v12.7l2.2-2l1.3,1.2L11.6,16L7.2,11.9z M7,8V3h0L5,7.9H3.8L1.8,3h0v5H0V0h2.4 l2,5.1h0l2-5.1h2.4v8H7z"/>
    </symbol>

    <symbol id="icon-xyna-tb-choice" viewBox="0 0 16 16">
        <path d="M6.4,16L0,8l6.4-8l2.7,3.4L8.1,4.3L6.4,2.2L1.7,8l4.7,5.8l2.1-2.6l1.1,0.9L6.4,16z M9.1,7.7h1.6 c0-0.9,0.8-1.7,1.7-1.7c0,0,0.1,0,0.1,0c0.9-0.1,1.6,0.5,1.7,1.4c0,0,0,0.1,0,0.1c0,0.8-0.3,1.3-1.3,1.8c-0.9,0.4-1.5,1.4-1.5,2.4 v0.6h1.6v-0.5c0-0.8,0.3-1.2,1.3-1.8c1-0.5,1.6-1.5,1.6-2.7c0-1.7-1.4-2.9-3.4-2.9C10.4,4.6,9.2,5.9,9.1,7.7z M12.3,16 c0.6,0,1-0.4,1-1s-0.4-1-1-1s-1,0.4-1,1C11.3,15.5,11.8,16,12.3,16z"/>
    </symbol>

    <symbol id="icon-xyna-tb-choiceconditional" viewBox="0 0 16 16">
        <path d="M0,8l6.4-8l2.7,3.4L8.1,4.3L6.4,2.2L1.7,8l4.7,5.8l1.7-2.1l1.1,0.9L6.4,16L0,8z M10.2,11.2 c-0.4,0-0.6-0.3-0.6-0.6c0,0,0,0,0,0c0-0.4,0.3-0.6,0.6-0.6c0,0,0,0,0,0h5.1c0.4,0,0.6,0.3,0.6,0.6l0,0c0,0.4-0.3,0.6-0.6,0.6 c0,0,0,0,0,0H10.2z M10.2,8.6C9.9,8.6,9.6,8.4,9.6,8c0,0,0,0,0,0c0-0.4,0.3-0.6,0.6-0.6c0,0,0,0,0,0h5.1C15.7,7.4,16,7.6,16,8l0,0 c0,0.4-0.3,0.6-0.6,0.6c0,0,0,0,0,0L10.2,8.6z M10.2,6.1c-0.4,0-0.6-0.3-0.6-0.6c0,0,0,0,0,0c0-0.4,0.3-0.6,0.6-0.6c0,0,0,0,0,0h5.1 c0.4,0,0.6,0.3,0.6,0.6l0,0c0,0.4-0.3,0.6-0.6,0.6c0,0,0,0,0,0H10.2z"/>
    </symbol>

    <symbol id="icon-xyna-tb-timecontrolled" viewBox="0 0 16 16">
        <path d="M12.8,8.8c0,0.4-0.3,0.8-0.7,0.8c0,0-0.1,0-0.1,0H8.8C7.9,9.6,7.2,8.9,7.2,8c0,0,0,0,0,0V4 c0-0.4,0.3-0.8,0.7-0.8c0,0,0.1,0,0.1,0c0.4,0,0.8,0.3,0.8,0.7c0,0,0,0.1,0,0.1v3.2C8.8,7.6,9.2,8,9.6,8H12 C12.4,8,12.8,8.3,12.8,8.8C12.8,8.7,12.8,8.8,12.8,8.8z M16,8c0,4.4-3.6,8-8,8s-8-3.6-8-8s3.6-8,8-8C12.4,0,16,3.6,16,8z M14.4,8 c0-3.5-2.9-6.4-6.4-6.4S1.6,4.5,1.6,8s2.9,6.4,6.4,6.4c0,0,0,0,0,0C11.5,14.4,14.4,11.5,14.4,8z"/>
    </symbol>

    <symbol id="icon-xyna-tb-manualinteraction" viewBox="0 0 16 16">
        <path d="M12.7,16v-2.6H1.3v1.9H0v-5.1h1.3v1.9h11.3V9.6l3.3,3.2L12.7,16z M11.3,0v10.9h-8V0H11.3z M7.9,8.9c0-0.4-0.4-0.7-0.8-0.7c0,0,0,0,0,0C6.7,8.1,6.4,8.4,6.3,8.8C6.3,9.2,6.6,9.6,6.9,9.6c0.1,0,0.1,0,0.2,0 C7.5,9.6,7.9,9.3,7.9,8.9C7.9,8.9,7.9,8.9,7.9,8.9z M10,3.4c0-1.2-1.1-2.1-2.6-2.1c-1.7,0-2.7,1-2.7,2.2h1.2 c0.1-0.7,0.7-1.3,1.5-1.2c0,0,0,0,0,0c0.8,0,1.3,0.4,1.3,1.1c0,0.6-0.3,0.9-1,1.3c-0.8,0.5-1.2,1-1.1,1.8V7h1.2V6.7 c0-0.6,0.2-0.9,1-1.3C9.5,5,10,4.2,10,3.4z"/>
    </symbol>

    <symbol id="icon-xyna-tb-exception" viewBox="0 0 16 16">
        <path d="M13.6,15.2H2.3c-0.8,0.1-1.6-0.3-2.1-1c-0.3-0.7-0.3-1.5,0.2-2.2l5.8-10C6.5,1.3,7.2,0.9,8,0.8 c0.8,0.1,1.5,0.5,1.8,1.3l5.7,10c0.5,0.6,0.6,1.4,0.2,2.1C15.3,14.9,14.5,15.3,13.6,15.2z M8,10.9c-0.5,0-0.9,0.4-0.9,0.9 c0,0.5,0.4,0.9,0.9,0.9c0.5,0,0.9-0.4,0.9-0.9C8.9,11.4,8.5,11,8,10.9z M6.8,4.8l0.6,4.9h1.2l0.6-4.9L6.8,4.8L6.8,4.8z"/>
    </symbol>

    <symbol id="icon-xyna-tb-rollup" viewBox="0 0 16 16">
        <path d="M16,11.3V14c0,1.1-0.8,2-1.9,2c0,0,0,0-0.1,0H7.3c-1.1,0-2-0.9-2-2c0,0,0,0,0-0.1v-2.7c0-1.1,0.8-2,1.9-2 c0,0,0,0,0.1,0H14C15.1,9.3,16,10.2,16,11.3z M1.3,9.2V5.9c0.1-1.1,0.9-1.9,2-2h7.1L8.9,5.4l0.9,0.9l3.1-3.2L9.8,0L8.9,0.9l1.5,1.6 H3.3C1.5,2.6,0.1,4.1,0,5.9v3.4c0.1,2.2,1.8,3.9,4,4.1v-1.4C2.6,11.8,1.4,10.7,1.3,9.2z"/>
    </symbol>

    <symbol id="icon-xyna-tb-template" viewBox="0 0 16 16">
        <path d="M13.3,1.3c0.7,0,1.3,0.6,1.3,1.3v10.7c0,0.7-0.6,1.3-1.3,1.3H2.7c-0.7,0-1.3-0.6-1.3-1.3V2.7 c0-0.7,0.6-1.3,1.3-1.3H13.3 M13.3,0H2.7C1.2,0,0,1.2,0,2.7v10.7C0,14.8,1.2,16,2.7,16h10.7c1.5,0,2.7-1.2,2.7-2.7V2.7 C16,1.2,14.8,0,13.3,0z M4.1,5.7L4.1,5.7l2.9,1.5v1.5L2.7,6.3V5.1l4.3-2.5v1.5L4.1,5.7z M9.1,2.7l4.3,2.5v1.1L9.1,8.7V7.2l2.9-1.5 V5.7L9.1,4.2C9.1,4.2,9.1,2.7,9.1,2.7z"/>
    </symbol>

    <symbol id="icon-xyna-tb-templatestart" viewBox="0 0 16 16">
        <path d="M1.6,13.6H0v-8c0-1.8,1.4-3.2,3.2-3.2h9.6c1.8,0,3.2,1.4,3.2,3.2v8h-1.6v-8c0-0.9-0.7-1.6-1.6-1.6H3.2	C2.3,4,1.6,4.7,1.6,5.6V13.6L1.6,13.6z M4.8,10.4c0-1.8,1.4-3.2,3.2-3.2s3.2,1.4,3.2,3.2S9.8,13.6,8,13.6S4.8,12.2,4.8,10.4z M6.4,10.4C6.4,11.3,7.1,12,8,12s1.6-0.7,1.6-1.6c0-0.9-0.7-1.6-1.6-1.6S6.4,9.5,6.4,10.4z"/>
    </symbol>

    <symbol id="icon-xyna-tb-templateend" viewBox="0 0 16 16">
        <path d="M3.2,13.6c-1.8,0-3.2-1.4-3.2-3.2v-8h1.6v8c0,0.9,0.7,1.6,1.6,1.6h9.6c0.9,0,1.6-0.7,1.6-1.6v-8H16v8 c0,1.8-1.4,3.2-3.2,3.2H3.2z M4.8,5.6c0-1.8,1.4-3.2,3.2-3.2s3.2,1.4,3.2,3.2S9.8,8.8,8,8.8S4.8,7.4,4.8,5.6z M6.4,5.6 c0,0.9,0.7,1.6,1.6,1.6s1.6-0.7,1.6-1.6S8.9,4,8,4S6.4,4.7,6.4,5.6z"/>
    </symbol>

    <symbol id="icon-xyna-tb-database" viewBox="0 0 16 16">
        <path d="M0,11.2c0-0.6,0.3-1.2,0.7-1.6c0.3,0.4,0.7,0.7,1.2,1c-0.1,0.2-0.2,0.4-0.2,0.6c0,1.3,2.9,2.4,6.4,2.4	s6.4-1.1,6.4-2.4c0-0.2-0.1-0.5-0.2-0.6c0.4-0.3,0.8-0.6,1.2-1c0.4,0.4,0.7,1,0.7,1.6c0,2.2-3.6,4-8,4S0,13.4,0,11.2z M0,8 c0-0.6,0.3-1.2,0.7-1.6C1,6.8,1.4,7.1,1.8,7.3C1.7,7.5,1.6,7.8,1.6,8c0,1.3,2.9,2.4,6.4,2.4s6.4-1.1,6.4-2.4c0-0.2-0.1-0.5-0.2-0.6 c0.4-0.3,0.8-0.6,1.2-0.9C15.7,6.8,16,7.4,16,8c0,2.2-3.6,4-8,4S0,10.2,0,8z M0,4.8c0-2.2,3.6-4,8-4s8,1.8,8,4s-3.6,4-8,4S0,7,0,4.8z M1.6,4.8c0,1.3,2.9,2.4,6.4,2.4s6.4-1.1,6.4-2.4S11.5,2.4,8,2.4S1.6,3.5,1.6,4.8z"/>
    </symbol>

    <symbol id="icon-xyna-tb-pen" viewBox="0 0 16 16">
        <path d="M16,3.7L12.3,0L3.9,7.8v4.3h4.3L16,3.7z M12.4,2.1l1.4,1.4l-1.1,1.2l-1.4-1.4L12.4,2.1z M5.5,10.5V8.4L10,4.2 L11.5,6l-4,4.5L5.5,10.5z M15.7,14.4V16H0v-1.6L15.7,14.4z"/>
    </symbol>

    <symbol id="icon-xyna-sp-xynanavigation" viewBox="0 0 16 16">
        <path d="M14.3,3.2H8.9c-0.6,0-1.2-0.3-1.4-0.9L6.7,0.9C6.5,0.3,5.9,0,5.4,0H1.5C0.7,0,0,0.7,0,1.6c0,0,0,0,0,0v12.8 C0,15.2,0.6,16,1.5,16c0,0,0,0,0,0h12.8c0.9,0,1.6-0.7,1.7-1.6V4.8C16,3.9,15.2,3.2,14.3,3.2z M14.4,13.6c0,0.5-0.4,0.8-0.9,0.8H2.3 c-0.5,0-0.7-0.3-0.7-0.8V8h12.8V13.6z M14.4,6.4H1.6v-4c0-0.5,0.2-0.8,0.7-0.8H5c0.3,0,0.6,0.2,0.6,0.5l0.9,1.8 c0.3,0.6,0.9,0.9,1.5,0.9h5.4c0.5,0,0.8,0.3,0.9,0.8L14.4,6.4z"/>
    </symbol>

    <symbol id="icon-xyna-sp-search" viewBox="0 0 16 16">
        <path d="M9.6,0C6.1,0,3.2,2.9,3.2,6.4s2.9,6.4,6.4,6.4S16,9.9,16,6.4c0,0,0,0,0,0C16,2.9,13.1,0,9.6,0z M9.6,11.2c-2.7,0-4.8-2.1-4.8-4.8s2.1-4.8,4.8-4.8s4.8,2.1,4.8,4.8C14.4,9,12.2,11.2,9.6,11.2z M3.4,11.4l1.1,1.1L1.1,16L0,14.9 L3.4,11.4z"/>
    </symbol>

    <symbol id="icon-xyna-sp-properties" viewBox="0 0 16 16">
        <path d="M16,5.1v9.3l0,0c0,0.9-0.8,1.6-1.7,1.6H1.5C0.7,16,0,15.3,0,14.4c0,0,0,0,0,0l0,0V1.6 C0,0.7,0.7,0,1.5,0h9.3c0.2,0,0.4,0.1,0.6,0.2l4.4,4.3C15.9,4.7,16,4.9,16,5.1z M14.4,6.4h-3.3c-0.8,0-1.5-0.7-1.5-1.6c0,0,0,0,0,0 V1.6H2.3c-0.5,0-0.7,0.3-0.7,0.8v11.2c0,0.5,0.2,0.8,0.7,0.8h4.9v-4C7.2,10,7.6,9.6,8,9.6c0.4,0,0.8,0.4,0.8,0.8v4h4.7 c0.5,0,0.8-0.3,0.9-0.8c0,0,0,0,0,0L14.4,6.4z M7.9,6.4c-0.4,0-0.8,0.3-0.8,0.7c0,0,0,0.1,0,0.1C7.1,7.6,7.4,8,7.8,8 c0,0,0.1,0,0.1,0c0.4,0,0.8-0.3,0.8-0.7c0,0,0-0.1,0-0.1C8.7,6.8,8.4,6.4,7.9,6.4C8,6.4,8,6.4,7.9,6.4z"/>
    </symbol>

    <symbol id="icon-xyna-sp-launcher" viewBox="0 0 16 16">
        <path d="M9.6,14.9v-4.7c0-0.6,0.5-1.1,1.1-1.1c0.2,0,0.3,0,0.5,0.1l4.2,2.4c0.5,0.2,0.7,0.8,0.4,1.3 c-0.1,0.2-0.3,0.3-0.4,0.4l-4.2,2.4C11,15.9,10.8,16,10.6,16C10.1,16,9.6,15.5,9.6,14.9C9.6,14.9,9.6,14.9,9.6,14.9z M4,16 c-1.8,0-3.3-1.4-3.3-3.3c0,0,0,0,0-0.1V12H2v0.7c0,1.1,0.8,2,1.9,2c0,0,0.1,0,0.1,0h3.2V16H4z M7.2,10.7H0.9C0.4,10.7,0,10.3,0,9.8 V6.2c0-0.5,0.4-0.9,0.9-0.9h14.3c0.5,0,0.8,0.4,0.8,0.9v1h-5.6c-1.8,0-3.2,1.4-3.2,3.2l0,0L7.2,10.7L7.2,10.7L7.2,10.7z M2,4H0.7 V3.3C0.6,1.5,2.1,0,3.9,0C4,0,4,0,4,0h8c1.8,0,3.3,1.4,3.3,3.3c0,0,0,0,0,0.1V4H14V3.3c0-1.1-0.8-2-1.9-2c0,0-0.1,0-0.1,0H4 c-1.1,0-2,0.8-2,1.9c0,0,0,0.1,0,0.1V4L2,4z"/>
    </symbol>

    <symbol id="icon-xyna-sp-helper" viewBox="0 0 16 16">
        <path d="M0,1.6v12.8C0,15.3,0.7,16,1.6,16c0,0,0,0,0,0h12.8c0.9,0,1.6-0.7,1.6-1.6c0,0,0,0,0,0V1.6 C16,0.7,15.3,0,14.4,0c0,0,0,0,0,0H1.6C0.7,0,0,0.7,0,1.6z M13.6,14.4H2.4c-0.4,0-0.8-0.3-0.8-0.7c0,0,0-0.1,0-0.1V2.4 c0-0.4,0.3-0.8,0.7-0.8c0,0,0.1,0,0.1,0h11.2c0.4,0,0.8,0.3,0.8,0.7c0,0,0,0.1,0,0.1v11.2C14.4,14,14.1,14.4,13.6,14.4 C13.7,14.4,13.6,14.4,13.6,14.4z M4.6,4c0-0.4,0.3-0.8,0.7-0.8c0,0,0.1,0,0.1,0H10c0.7,0,1.2,0.5,1.2,1.2v2c0,0.9-0.7,1.6-1.6,1.6 H8.4C8.2,8,8,8.1,8,8.4c0,0,0,0,0,0v0.8C8,9.6,7.7,10,7.3,10c0,0-0.1,0-0.1,0c-0.4,0-0.8-0.3-0.8-0.7c0,0,0-0.1,0-0.1V7.8 C6.4,7,7,6.4,7.8,6.4c0,0,0,0,0,0h0.8c0.4,0,0.8-0.3,0.8-0.7c0,0,0-0.1,0-0.1c0-0.4-0.3-0.8-0.7-0.8c0,0-0.1,0-0.1,0H5.4 C5,4.8,4.7,4.5,4.6,4C4.6,4.1,4.6,4,4.6,4z M7.8,11.6c0,0.4-0.3,0.8-0.7,0.8c0,0-0.1,0-0.1,0c-0.4,0-0.8-0.4-0.8-0.8 s0.4-0.8,0.8-0.8S7.8,11.2,7.8,11.6L7.8,11.6z"/>
    </symbol>

    <symbol id="icon-xyna-mini-list" viewBox="0 0 12 12">
        <path d="M0.8,12C0.3,12,0,11.7,0,11.2V9.8C0,9.3,0.3,9,0.8,9h1.5C2.7,9,3,9.3,3,9.8v1.5 C3,11.7,2.7,12,2.2,12H0.8z M4.5,11.2c-0.4,0-0.8-0.3-0.8-0.8c0-0.4,0.3-0.8,0.8-0.8h6.8c0.4,0,0.8,0.3,0.8,0.8c0,0,0,0,0,0 c0,0.4-0.3,0.8-0.8,0.8H4.5z M0.8,7.5C0.3,7.5,0,7.2,0,6.8V5.2c0-0.4,0.3-0.8,0.8-0.8h1.5C2.7,4.5,3,4.8,3,5.2v1.5 c0,0.4-0.3,0.8-0.8,0.8H0.8z M4.5,6.8C4.1,6.8,3.8,6.4,3.8,6s0.3-0.8,0.8-0.8h6.8C11.7,5.2,12,5.6,12,6s-0.3,0.8-0.8,0.8H4.5z M0.8,3C0.3,3,0,2.7,0,2.2V0.8C0,0.3,0.3,0,0.8,0h1.5C2.7,0,3,0.3,3,0.8v1.5C3,2.7,2.7,3,2.2,3H0.8z M4.5,2.2 c-0.4,0-0.8-0.3-0.8-0.8s0.3-0.8,0.8-0.8h6.8c0.4,0,0.8,0.3,0.8,0.8s-0.3,0.8-0.8,0.8H4.5z"/>
    </symbol>

    <symbol id="icon-xyna-mini-toggledown" viewBox="0 0 12 12">
        <path d="M5.3,9.6l-5-5.7c-0.4-0.5-0.4-1.1,0-1.6C0.6,2,1.2,1.9,1.5,2.2c0,0,0.1,0.1,0.1,0.1L6,7.2l4.4-4.9c0.3-0.4,0.9-0.4,1.3-0.1 c0,0,0.1,0.1,0.1,0.1C11.9,2.6,12,2.8,12,3.1c0,0.3-0.1,0.6-0.3,0.8l-5,5.7C6.5,10,5.9,10.1,5.5,9.8C5.4,9.8,5.4,9.7,5.3,9.6 L5.3,9.6z"/>
    </symbol>

    <symbol id="icon-xyna-mini-toggleup" viewBox="0 0 12 12">
        <path d="M6.7,2.4l5,5.7c0.4,0.5,0.4,1.1,0,1.6c-0.3,0.4-0.9,0.4-1.3,0.1c0,0-0.1-0.1-0.1-0.1L6,4.8L1.7,9.7C1.4,10,0.8,10.1,0.4,9.8 c0,0-0.1-0.1-0.1-0.1C0.1,9.4,0,9.2,0,8.9c0-0.3,0.1-0.6,0.3-0.8l5-5.7C5.4,2.2,5.7,2,6,2C6.3,2,6.5,2.2,6.7,2.4z"/>
    </symbol>

    <symbol id="icon-xyna-mini-catch" viewBox="0 0 12 12">
        <path d="M10.2,11.4H1.7c-0.6,0.1-1.2-0.2-1.6-0.7C-0.1,10.2,0,9.5,0.3,9.1l4.3-7.5C4.9,1,5.4,0.6,6,0.6 C6.6,0.6,7.1,1,7.4,1.5l4.3,7.5c0.4,0.5,0.4,1.1,0.2,1.6C11.5,11.2,10.9,11.5,10.2,11.4z M6,8.2c-0.4,0-0.7,0.3-0.7,0.7 c0,0.4,0.3,0.7,0.7,0.7c0.4,0,0.7-0.3,0.7-0.7C6.7,8.5,6.4,8.2,6,8.2z M5.1,3.6l0.5,3.7h0.9l0.5-3.7L5.1,3.6L5.1,3.6z"/>
    </symbol>

    <symbol id="icon-xyna-mini-compensation" viewBox="0 0 12 12">
        <path d="M10,12c-0.3,0-0.7-0.1-1-0.3L1.5,7.4C1,7.1,0.7,6.6,0.6,6C0.7,5.4,1,4.9,1.5,4.6l7.5-4.3 C9.4,0.1,9.7,0,10.1,0c0.8,0,1.3,0.7,1.3,1.8v8.5C11.4,11.3,10.9,12,10,12z M9,7.6c-0.4,0-0.7,0.3-0.7,0.7C8.3,8.7,8.6,9,9,9 c0.4,0,0.7-0.3,0.7-0.7C9.7,7.9,9.4,7.6,9,7.6z M8.1,3l0.4,3.7h0.9L9.9,3H8.1L8.1,3z"/>
    </symbol>

    <symbol id="icon-xyna-mini-datatype" viewBox="0 0 12 12">
        <path d="M11,4H1C0.4,4,0,4.4,0,5v2c0,0.6,0.4,1,1,1h10c0.6,0,1-0.4,1-1V5C12,4.4,11.6,4,11,4z M11,7H2.8V5H11V7z"/>
    </symbol>

    <symbol id="icon-xyna-mini-workflow" viewBox="0 0 12 12">
        <path d="M11.4,8H0.6C0.3,8,0,7.7,0,7.3V4.7C0,4.3,0.3,4,0.6,4h10.8C11.7,4,12,4.3,12,4.7v2.8C12,7.7,11.7,8,11.4,8 z M11.5,9.5V9h-1v0.5c0,0.8-0.6,1.5-1.4,1.5c0,0,0,0-0.1,0H3c-0.8,0-1.5-0.6-1.5-1.4c0,0,0,0,0-0.1V9h-1v0.5C0.5,10.9,1.6,12,3,12 c0,0,0,0,0,0h6C10.4,12,11.5,10.9,11.5,9.5C11.5,9.5,11.5,9.5,11.5,9.5z M11.5,2.5C11.5,1.1,10.4,0,9,0c0,0,0,0,0,0H3 C1.6,0,0.5,1.1,0.5,2.5c0,0,0,0,0,0V3h1V2.5C1.5,1.7,2.1,1,2.9,1C3,1,3,1,3,1h6c0.8,0,1.5,0.6,1.5,1.4c0,0,0,0,0,0.1V3h1V2.5z"/>
    </symbol>
</svg>